<svg xmlns="http://www.w3.org/2000/svg" xmlns:xlink="http://www.w3.org/1999/xlink" viewBox="0,0,256,256" width="80px" height="80px"><g fill="#ffffff" fill-rule="nonzero" stroke="none" stroke-width="1" stroke-linecap="butt" stroke-linejoin="miter" stroke-miterlimit="10" stroke-dasharray="" stroke-dashoffset="0" font-family="none" font-weight="none" font-size="none" text-anchor="none" style="mix-blend-mode: normal"><g transform="scale(3.2,3.2)"><path d="M48.70703,16c-0.38672,0.00781 -0.73047,0.23438 -0.89062,0.58594c0,0 -0.55859,1.23047 -0.85937,2.91797c-3.00391,-0.50391 -5.54687,-0.62891 -6.95703,-0.62891c-1.41016,0 -3.95312,0.125 -6.95703,0.62891c-0.30078,-1.6875 -0.85937,-2.91797 -0.85937,-2.91797c-0.17187,-0.375 -0.55469,-0.60547 -0.96484,-0.58594c-0.01172,0.00391 -0.01953,0.00391 -0.02734,0.00391c0,0 -9.19922,0.63672 -15.08594,5.3125c-0.01562,0.01563 -0.03516,0.02734 -0.05078,0.04297c-0.93359,0.85156 -1.75781,2.33984 -2.72656,4.45313c-0.96484,2.11719 -1.98437,4.81641 -2.92187,7.875c-1.87109,6.11719 -3.40625,13.64844 -3.40625,20.6875c0,0.17578 0.04688,0.34766 0.13281,0.5c2.04688,3.55078 5.84375,5.75781 9.44141,7.14063c3.59375,1.37891 6.96484,1.93359 8.57813,1.98438c0.32813,0.01172 0.64063,-0.14062 0.83203,-0.40625l3.74609,-5.08203c2.88672,0.69141 6.29688,1.17578 10.26953,1.17578c3.97266,0 7.38281,-0.48437 10.26953,-1.17578l3.74609,5.08203c0.19141,0.26563 0.50391,0.41797 0.83203,0.40625c1.61719,-0.05078 4.98438,-0.60547 8.57813,-1.98437c3.59766,-1.38281 7.39453,-3.58984 9.44141,-7.14062c0.08594,-0.15234 0.13281,-0.32422 0.13281,-0.5c0,-7.03906 -1.53516,-14.57031 -3.40625,-20.6875c-0.9375,-3.05859 -1.95703,-5.75781 -2.92187,-7.875c-0.96875,-2.11328 -1.79297,-3.60156 -2.72266,-4.45312c-0.01953,-0.01172 -0.03516,-0.02734 -0.05469,-0.04297c-5.88672,-4.67578 -15.08594,-5.3125 -15.08594,-5.3125c-0.03516,-0.00391 -0.06641,-0.00391 -0.10156,-0.00391zM30.54688,18.14063c0.14453,0.36328 0.37109,0.86328 0.52734,1.72656c-3.36719,0.72656 -7.12891,1.96875 -10.57812,4.08594c-0.31641,0.17969 -0.50391,0.51953 -0.49609,0.87891c0.00781,0.36328 0.20703,0.69531 0.52734,0.86328c0.32031,0.17188 0.70703,0.15625 1.01172,-0.03906c6.86328,-4.20703 15.49219,-4.78125 18.46094,-4.78125c2.96875,0 11.59766,0.57422 18.46094,4.78125c0.30469,0.19531 0.69141,0.21094 1.01172,0.03906c0.32031,-0.16797 0.51953,-0.5 0.52734,-0.86328c0.00781,-0.35937 -0.17969,-0.69922 -0.49609,-0.87891c-3.45312,-2.11719 -7.21484,-3.35937 -10.58203,-4.08594c0.16016,-0.85937 0.38672,-1.36328 0.53125,-1.72656c1.21484,0.13281 8.42578,0.98438 13.16016,4.71875c0.40625,0.37891 1.32422,1.78906 2.23828,3.78516c0.91797,2.01172 1.91406,4.64453 2.82813,7.625c1.80078,5.88672 3.25,13.14453 3.29297,19.8125c-1.72266,2.80078 -4.98828,4.80469 -8.26172,6.0625c-3.10156,1.19531 -6.03125,1.67969 -7.4375,1.78516l-2.92969,-3.97656c1.45703,-0.4375 2.76172,-0.91406 3.875,-1.39453c3.61719,-1.57422 5.51172,-3.21484 5.51172,-3.21484c0.27344,-0.23437 0.39844,-0.59766 0.32813,-0.94922c-0.06641,-0.35156 -0.32031,-0.64062 -0.66016,-0.75781c-0.33984,-0.11328 -0.71484,-0.03906 -0.98437,0.20313c0,0 -1.59766,1.40625 -4.99219,2.88281c-3.39453,1.47656 -8.51953,2.96484 -15.42187,2.96484c-6.90234,0 -12.02734,-1.48828 -15.42187,-2.96484c-3.39453,-1.47656 -4.99219,-2.88281 -4.99219,-2.88281c-0.17578,-0.16016 -0.40234,-0.25 -0.63672,-0.25781c-0.42578,-0.01172 -0.8125,0.24219 -0.96484,0.64063c-0.15234,0.39453 -0.03906,0.84766 0.28516,1.12109c0,0 1.89453,1.64063 5.51172,3.21484c1.11328,0.48047 2.41797,0.95703 3.875,1.39453l-2.92969,3.97656c-1.40625,-0.10547 -4.33594,-0.58984 -7.43359,-1.78516c-3.27344,-1.25781 -6.54297,-3.26172 -8.26562,-6.0625c0.04297,-6.66797 1.49219,-13.92578 3.29297,-19.8125c0.91406,-2.98047 1.91016,-5.61328 2.82813,-7.625c0.91406,-1.99609 1.83594,-3.41016 2.24219,-3.78516c4.73047,-3.73437 11.94141,-4.58594 13.15625,-4.71875zM17.78125,28.42969l-0.82422,0.35156l-0.17578,0.30078l-0.03516,0.09375l0.10156,0.89063l0.77344,0.45313l0.82813,-0.34766l0.17578,-0.30859l0.03125,-0.09375l-0.09766,-0.89062zM62.56641,28.46875l-0.88281,0.15625l-0.40234,0.79688l0.0625,0.34766l0.03125,0.09375l0.65234,0.61719l0.88281,-0.15625l0.40234,-0.80078l-0.05859,-0.34766l-0.03516,-0.09375zM16.39063,32.29297l-0.81641,0.36719l-0.16797,0.30859l-0.03516,0.09375l0.125,0.89063l0.78125,0.43359l0.81641,-0.37109l0.17188,-0.30859l0.03125,-0.09375l-0.125,-0.89062zM63.95703,32.33984l-0.88281,0.13281l-0.42187,0.79297l0.05078,0.34766l0.03125,0.09375l0.64063,0.63281l0.88672,-0.13672l0.42188,-0.79297l-0.05469,-0.34766l-0.03516,-0.09375zM30,36c-3.35547,0 -6,2.97266 -6,6.5c0,3.52734 2.64453,6.5 6,6.5c3.35547,0 6,-2.97266 6,-6.5c0,-3.52734 -2.64453,-6.5 -6,-6.5zM50,36c-3.35547,0 -6,2.97266 -6,6.5c0,3.52734 2.64453,6.5 6,6.5c3.35547,0 6,-2.97266 6,-6.5c0,-3.52734 -2.64453,-6.5 -6,-6.5zM15.10547,36.20313l-0.79297,0.41016l-0.15625,0.32031l-0.02734,0.09766l0.17188,0.875l0.80859,0.39063l0.79688,-0.41016l0.15234,-0.32031l0.02344,-0.09766l-0.16797,-0.875zM65.23828,36.26953l-0.89062,0.08594l-0.46484,0.76563l0.03516,0.34766l0.02344,0.09766l0.60547,0.66406l0.89063,-0.08594l0.46484,-0.76562l-0.03125,-0.34766l-0.02734,-0.09766zM30,38c2.16797,0 4,1.95313 4,4.5c0,2.54688 -1.83203,4.5 -4,4.5c-2.16797,0 -4,-1.95312 -4,-4.5c0,-2.54687 1.83203,-4.5 4,-4.5zM50,38c2.16797,0 4,1.95313 4,4.5c0,2.54688 -1.83203,4.5 -4,4.5c-2.16797,0 -4,-1.95312 -4,-4.5c0,-2.54687 1.83203,-4.5 4,-4.5zM14,40.16016l-0.78125,0.44922l-0.13672,0.32031l-0.02344,0.09766l0.20703,0.875l0.82031,0.35156l0.77734,-0.44141l0.14063,-0.32422l0.02344,-0.09766l-0.20703,-0.875zM66.34375,40.24219l-0.89453,0.05078l-0.49609,0.74609l0.01953,0.35156l0.02344,0.09766l0.57422,0.6875l0.89453,-0.05078l0.49609,-0.74609l-0.01953,-0.35156l-0.02344,-0.09766zM13.06641,44.16797l-0.75781,0.47266l-0.12891,0.32813l-0.01953,0.09766l0.24219,0.86719l0.83203,0.32031l0.76172,-0.47266l0.12891,-0.32812l0.01563,-0.09766l-0.23828,-0.86719zM67.26953,44.26172l-0.89453,0.01563l-0.52344,0.72266l0.00781,0.35547l0.01563,0.09766l0.54688,0.70703l0.89844,-0.01562l0.52344,-0.72266l-0.00391,-0.35547l-0.01953,-0.09766zM12.38672,48.23047l-0.72656,0.52344l-0.10156,0.33984l-0.01172,0.09766l0.30078,0.84375l0.85547,0.26563l0.72266,-0.53125l0.10547,-0.33203l0.01563,-0.10156l-0.30469,-0.84375zM67.05078,48.29688l-0.57812,0.6875l-0.01953,0.35156l0.01563,0.10156l0.49609,0.74609l0.89453,0.04688l0.57422,-0.68359l0.01953,-0.35547l-0.01172,-0.09766l-0.49609,-0.75z"></path></g></g></svg>